# xmcd CD database file
#
# Track frame offsets:
#	150
#	62970
#	101347
#	177874
#	230414
#	265336
#	285023
#
# Disc length: 4231 seconds
#
# Revision: 2
# Processed by: cddbd v1.5PL3 Copyright (c) Steve Scherf et al.
# Submitted via: CDex 1.50
#
DISCID=56108507
DTITLE=The Cream - The Cream Remasters 5 - EAST COAST [CD2]
DYEAR=1900
DGENRE=Psychedelic Rock
TTITLE0=Stepping Out
TTITLE1=Traintime
TTITLE2=Toad
TTITLE3=Spoonful
TTITLE4=Sweet Wine
TTITLE5=Tales of Brave Ulysses
TTITLE6=Sunshine Of Your Love
EXTD=
EXTT0=
EXTT1=
EXTT2=
EXTT3=
EXTT4=
EXTT5=
EXTT6=
PLAYORDER=
